<svg width="254" height="100" viewBox="0 0 254 100" fill="none" xmlns="http://www.w3.org/2000/svg">
<path d="M63.9101 19.1312C62.8985 14.028 60.0938 9.42694 55.9777 6.11832C51.8616 2.80971 46.6909 1 41.3537 1C36.0165 1 30.8458 2.80971 26.7297 6.11832C22.6136 9.42694 19.8089 14.028 18.7973 19.1312C14.0374 19.1702 9.48825 21.0489 6.15072 24.3541C2.81319 27.6593 0.96065 32.1203 1.00063 36.7556C1.04062 41.3909 2.96985 45.821 6.36393 49.0711C9.758 52.3212 14.3389 54.1253 19.0989 54.0863H63.6085C65.9654 54.1056 68.3032 53.6726 70.4882 52.8121C72.6733 51.9516 74.6629 50.6804 76.3435 49.0711C78.024 47.4618 79.3627 45.5459 80.2829 43.4328C81.2031 41.3197 81.687 39.0508 81.7068 36.7556C81.7266 34.4604 81.2819 32.1839 80.3983 30.0561C79.5146 27.9282 78.2093 25.9907 76.5567 24.3541C74.9041 22.7175 72.9367 21.414 70.7668 20.5178C68.5969 19.6217 66.267 19.1505 63.9101 19.1312Z" stroke="url(#paint0_linear_322_883)" stroke-width="2" stroke-linecap="round" stroke-linejoin="round"/>
<path d="M80.5467 47.9923C81.8229 45.4079 82.0519 42.6228 81.208 39.9513C80.3641 37.2797 78.4808 34.8283 75.7708 32.8737C73.1173 30.8811 69.7285 29.4532 65.9875 28.7513C62.2465 28.0494 58.3024 28.1016 54.6011 28.9019L44.5804 30.989C42.4737 31.429 40.2321 31.429 38.1254 30.989L28.1062 28.902C24.4049 28.1018 20.4609 28.0496 16.7199 28.7515C12.9789 29.4534 9.59013 30.8813 6.93654 32.8738C4.22659 34.8284 2.34333 37.2798 1.49941 39.9513C0.655496 42.6228 0.884531 45.4079 2.16066 47.9923L9.02577 62.3491C9.83906 64.0766 9.81619 65.9464 8.96077 67.6636C6.88598 72.1206 6.09945 76.8271 6.64793 81.5034C7.19641 86.1796 9.0687 90.7301 12.1535 94.8845L14.3264 97.7924C14.8258 98.4817 15.5938 99.0556 16.5397 99.4462C17.4855 99.8368 18.5696 100.028 19.664 99.9966C20.7569 99.978 21.8202 99.742 22.732 99.3155C23.6439 98.8891 24.3672 98.2895 24.8191 97.5855L35.66 80.8582C36.1596 80.0872 36.9617 79.4338 37.971 78.9758C38.9804 78.5177 40.1544 78.2742 41.3537 78.2742C42.5529 78.2742 43.727 78.5177 44.7363 78.9758C45.7456 79.4338 46.5477 80.0872 47.0473 80.8582L57.8882 97.5855C58.3402 98.2895 59.0635 98.8891 59.9753 99.3155C60.8871 99.742 61.9505 99.978 63.0433 99.9965L63.212 99.9988C64.2767 100.001 65.3219 99.7966 66.2335 99.4076C67.145 99.0185 67.8879 98.4597 68.381 97.7924L70.4161 95.0705C73.5436 90.8594 75.4423 86.2467 75.9992 81.5064C76.5562 76.7661 75.7601 71.995 73.6583 67.4766C72.8828 65.8105 72.8909 64.0117 73.6815 62.3492L80.5467 47.9923ZM70.6498 68.1824C72.6183 72.4139 73.3639 76.8821 72.8423 81.3214C72.3207 85.7607 70.5425 90.0805 67.6134 94.0243L65.5799 96.7461C65.3598 97.0674 65.0094 97.3351 64.5734 97.515C64.1373 97.6949 63.6354 97.7789 63.1316 97.7563C62.6298 97.7506 62.1408 97.6435 61.7223 97.4476C61.3039 97.2518 60.9734 96.9753 60.7699 96.6509L49.929 79.9235C49.1762 78.7626 47.968 77.7788 46.4479 77.0891C44.9278 76.3995 43.1597 76.0328 41.3537 76.0328C39.5477 76.0328 37.7796 76.3995 36.2595 77.0891C34.7394 77.7788 33.5312 78.7626 32.7784 79.9235L21.9374 96.6509C21.7339 96.9753 21.4034 97.2518 20.985 97.4476C20.5665 97.6435 20.0775 97.7506 19.5757 97.7563C19.0731 97.7747 18.5737 97.689 18.1391 97.5095C17.7044 97.3301 17.3533 97.0647 17.1289 96.7461L14.956 93.8382C12.0587 89.9248 10.3074 85.6382 9.80673 81.2351C9.30607 76.8319 10.0664 72.4025 12.0422 68.212C13.0568 66.0765 13.0519 63.7645 12.0283 61.6312L5.16321 47.2744C4.07895 45.0783 3.88432 42.7116 4.6013 40.4414C5.31829 38.1712 6.91833 36.0879 9.22083 34.4267C11.4761 32.7336 14.3561 31.5202 17.5353 30.9238C20.7145 30.3273 24.0662 30.3716 27.2117 31.0515L37.2293 33.1386C38.0895 33.3106 38.9703 33.4262 39.8604 33.484C37.8794 34.951 36.4992 36.7711 35.8673 38.7498C35.7767 39.04 35.8529 39.3438 36.0789 39.5944C36.305 39.845 36.6625 40.0218 37.0729 40.0861C37.1858 40.1033 37.3009 40.1121 37.4165 40.1123C37.7771 40.112 38.1268 40.0248 38.4079 39.865C38.6889 39.7053 38.8846 39.4825 38.9625 39.2335C39.3952 37.8741 40.2673 36.6041 41.5106 35.5231C42.7538 34.442 44.3343 33.5794 46.1281 33.0029L55.4955 31.0515C58.6411 30.3719 61.9927 30.3278 65.1718 30.9243C68.3509 31.5207 71.2309 32.7338 73.4864 34.4267C75.7889 36.0879 77.389 38.1711 78.106 40.4413C78.823 42.7115 78.6284 45.0782 77.5442 47.2743L70.6791 61.6311C69.6698 63.7554 69.6595 66.0536 70.6498 68.1824Z" fill="url(#paint1_linear_322_883)"/>
<path d="M58.3398 69.6318C59.582 69.6318 60.3555 69.5264 60.6602 69.3154C60.9648 69.0928 61.1465 68.8584 61.2051 68.6123C61.2637 68.3662 61.293 68.0674 61.293 67.7158V49.0479C61.293 48.2861 61.1641 47.8115 60.9062 47.624C60.4375 47.2959 59.582 47.1318 58.3398 47.1318V45.1982H67.7793C75.3496 45.1982 79.9023 47.6826 81.4375 52.6514C81.9062 54.1982 82.1406 55.8623 82.1406 57.6436C82.1406 59.4131 81.9648 60.9717 81.6133 62.3193C81.2617 63.6553 80.7695 64.8389 80.1367 65.8701C78.9297 67.8271 77.2715 69.2686 75.1621 70.1943C73.0645 71.1084 70.7207 71.5654 68.1309 71.5654H58.3398V69.6318ZM68.5176 69.6143C74.541 69.6143 77.5527 65.6885 77.5527 57.8369C77.5527 54.4854 76.7207 51.8369 75.0566 49.8916C73.3926 47.9346 70.9141 46.9561 67.6211 46.9561H65.248V69.6143H68.5176ZM101.494 63.4619H89.2949C89.2949 65.4775 89.7695 67.0361 90.7188 68.1377C91.6797 69.2393 92.8633 69.79 94.2695 69.79C96.1562 69.79 97.5098 69.0107 98.3301 67.4521L100.949 67.4346C100.68 68.6885 99.9062 69.749 98.6289 70.6162C97.3633 71.4834 95.6523 71.917 93.4961 71.917C91.3398 71.917 89.4766 71.249 87.9062 69.9131C86.0312 68.3076 85.0938 66.0459 85.0938 63.1279C85.0938 60.21 85.8379 57.8604 87.3262 56.0791C88.8262 54.2861 90.9707 53.3896 93.7598 53.3896C97.4277 53.3896 99.8008 54.8662 100.879 57.8193C101.312 59.0029 101.529 60.1221 101.529 61.1768C101.529 62.2314 101.518 62.9932 101.494 63.4619ZM97.4336 60.8252C97.4336 57.2393 96.2148 55.4463 93.7773 55.4463C92.4062 55.4463 91.334 55.9795 90.5605 57.0459C89.7988 58.1123 89.3828 59.5889 89.3125 61.4756H97.416C97.4277 61.2529 97.4336 61.0361 97.4336 60.8252ZM115.469 56.0264C113.547 56.0264 111.988 56.624 110.793 57.8193V67.7861C110.793 68.5127 110.91 68.9697 111.145 69.1572C111.555 69.4736 112.328 69.6318 113.465 69.6318V71.5654H104.535V69.6318C105.543 69.6318 106.176 69.5322 106.434 69.333C106.691 69.1221 106.85 68.8994 106.908 68.665C106.967 68.4307 106.996 68.1377 106.996 67.7861V58.2061C106.996 57.3623 106.92 56.8115 106.768 56.5537C106.627 56.2959 106.229 56.167 105.572 56.167H104.5V54.2334C105.602 54.2334 106.463 54.1514 107.084 53.9873C107.717 53.8115 108.162 53.6885 108.42 53.6182C108.689 53.5361 108.977 53.4951 109.281 53.4951C109.902 53.4951 110.307 53.6768 110.494 54.04C110.693 54.3916 110.793 54.96 110.793 55.7451C112.047 54.6904 113.5 53.9756 115.152 53.6006C115.703 53.4717 116.242 53.4072 116.77 53.4072C120.566 53.4072 122.465 55.9209 122.465 60.9482V67.751C122.465 68.5244 122.576 69.0342 122.799 69.2803C123.021 69.5146 123.631 69.6318 124.627 69.6318V71.5654H116.312V69.6318C117.379 69.6318 118.018 69.5264 118.229 69.3154C118.451 69.0928 118.58 68.8643 118.615 68.6299C118.65 68.3955 118.668 68.1025 118.668 67.751V61.1768C118.668 59.5479 118.516 58.4287 118.211 57.8193C117.613 56.624 116.699 56.0264 115.469 56.0264ZM134.436 71.917C130.744 71.917 128.898 69.8662 128.898 65.7646V56.9756C128.898 56.5186 128.84 56.2197 128.723 56.0791C128.617 55.9268 128.383 55.8506 128.02 55.8506H126.578V53.7412H127.229C128.119 53.7412 128.77 53.46 129.18 52.8975C129.602 52.335 129.83 51.4092 129.865 50.1201L129.883 48.5557H132.695V53.7412H138.092V55.8506H132.695V65.7119C132.695 67.8916 133.199 69.1924 134.207 69.6143C134.488 69.7314 134.77 69.79 135.051 69.79C136.281 69.79 137.084 68.7764 137.459 66.749H139.498C139.381 69.1514 138.379 70.7451 136.492 71.5303C135.883 71.7881 135.197 71.917 134.436 71.917ZM157.182 67.3643C157.182 68.7588 157.457 69.4561 158.008 69.4561C158.535 69.4561 158.922 69.2803 159.168 68.9287C159.414 68.5654 159.537 67.915 159.537 66.9775H161.383C161.395 67.1299 161.4 67.3701 161.4 67.6982C161.4 68.7529 161.137 69.667 160.609 70.4404C159.965 71.4248 158.939 71.917 157.533 71.917C156.619 71.917 155.84 71.6592 155.195 71.1436C154.551 70.6279 154.105 69.9482 153.859 69.1045C152.16 70.9795 150.01 71.917 147.408 71.917C145.979 71.917 144.73 71.501 143.664 70.6689C142.609 69.8252 142.082 68.6533 142.082 67.1533C142.082 64.5518 144.004 62.6299 147.848 61.3877C150.285 60.6143 151.744 60.0811 152.225 59.7881C152.705 59.4834 153.016 59.1787 153.156 58.874C153.309 58.5576 153.385 58.2061 153.385 57.8193C153.385 57.1279 153.045 56.5537 152.365 56.0967C151.686 55.6279 150.801 55.3936 149.711 55.3936C148.621 55.3936 147.66 55.6865 146.828 56.2725C147.414 56.7061 147.707 57.2627 147.707 57.9424C147.707 58.6221 147.479 59.167 147.021 59.5771C146.576 59.9873 146.031 60.1924 145.387 60.1924C144.754 60.1924 144.227 59.999 143.805 59.6123C143.395 59.2256 143.189 58.6865 143.189 57.9951C143.189 56.624 143.881 55.5166 145.264 54.6729C146.646 53.8174 148.328 53.3896 150.309 53.3896C153.848 53.3896 156.01 54.5381 156.795 56.835C157.053 57.5967 157.182 58.4756 157.182 59.4717V67.3643ZM149.43 62.9873C148.398 63.4326 147.625 64.0068 147.109 64.71C146.594 65.4014 146.336 66.1572 146.336 66.9775C146.336 67.7979 146.559 68.4189 147.004 68.8408C147.449 69.2627 148.006 69.4736 148.674 69.4736C150.033 69.4736 151.158 68.999 152.049 68.0498C152.939 67.0889 153.385 65.7529 153.385 64.042V61.335C152.635 61.7217 151.838 62.0732 150.994 62.3896C150.162 62.7061 149.641 62.9053 149.43 62.9873ZM162.262 69.6318C163.375 69.6318 164.102 69.5264 164.441 69.3154C164.781 69.0928 164.998 68.8584 165.092 68.6123C165.186 68.3662 165.232 68.0674 165.232 67.7158L165.215 49.0479C165.215 48.2861 165.086 47.8115 164.828 47.624C164.359 47.2959 163.504 47.1318 162.262 47.1318V45.1982H172.158V47.1318C171.045 47.1318 170.318 47.2432 169.979 47.4658C169.639 47.6768 169.422 47.9053 169.328 48.1514C169.234 48.3975 169.188 48.6963 169.188 49.0479V69.5264H175.252C177.127 69.5264 178.416 68.501 179.119 66.4502L179.822 64.4639L182.248 64.4814L181.035 71.5654H162.262V69.6318ZM189.35 50.1377C188.588 50.1377 187.938 49.8857 187.398 49.3818C186.871 48.8662 186.607 48.2393 186.607 47.501C186.607 46.751 186.877 46.1182 187.416 45.6025C187.955 45.0752 188.6 44.8115 189.35 44.8115C190.1 44.8115 190.744 45.0752 191.283 45.6025C191.822 46.1182 192.092 46.751 192.092 47.501C192.092 48.2393 191.822 48.8662 191.283 49.3818C190.756 49.8857 190.111 50.1377 189.35 50.1377ZM184.867 69.6318C185.957 69.6318 186.637 69.5322 186.906 69.333C187.188 69.1221 187.357 68.8994 187.416 68.665C187.475 68.4307 187.504 68.1377 187.504 67.7861V58.1006C187.504 57.2568 187.428 56.7061 187.275 56.4482C187.135 56.1904 186.742 56.0615 186.098 56.0615H184.832V54.1279C185.98 54.1279 186.883 54.0459 187.539 53.8818C188.195 53.7061 188.658 53.583 188.928 53.5127C189.197 53.4307 189.49 53.3896 189.807 53.3896C190.416 53.3896 190.814 53.5713 191.002 53.9346C191.201 54.2861 191.301 54.8545 191.301 55.6396V67.7861C191.301 68.5244 191.418 68.9873 191.652 69.1748C192.051 69.4795 192.807 69.6318 193.92 69.6318V71.5654H184.867V69.6318ZM207.543 56.0264C205.621 56.0264 204.062 56.624 202.867 57.8193V67.7861C202.867 68.5127 202.984 68.9697 203.219 69.1572C203.629 69.4736 204.402 69.6318 205.539 69.6318V71.5654H196.609V69.6318C197.617 69.6318 198.25 69.5322 198.508 69.333C198.766 69.1221 198.924 68.8994 198.982 68.665C199.041 68.4307 199.07 68.1377 199.07 67.7861V58.2061C199.07 57.3623 198.994 56.8115 198.842 56.5537C198.701 56.2959 198.303 56.167 197.646 56.167H196.574V54.2334C197.676 54.2334 198.537 54.1514 199.158 53.9873C199.791 53.8115 200.236 53.6885 200.494 53.6182C200.764 53.5361 201.051 53.4951 201.355 53.4951C201.977 53.4951 202.381 53.6768 202.568 54.04C202.768 54.3916 202.867 54.96 202.867 55.7451C204.121 54.6904 205.574 53.9756 207.227 53.6006C207.777 53.4717 208.316 53.4072 208.844 53.4072C212.641 53.4072 214.539 55.9209 214.539 60.9482V67.751C214.539 68.5244 214.65 69.0342 214.873 69.2803C215.096 69.5146 215.705 69.6318 216.701 69.6318V71.5654H208.387V69.6318C209.453 69.6318 210.092 69.5264 210.303 69.3154C210.525 69.0928 210.654 68.8643 210.689 68.6299C210.725 68.3955 210.742 68.1025 210.742 67.751V61.1768C210.742 59.5479 210.59 58.4287 210.285 57.8193C209.688 56.624 208.773 56.0264 207.543 56.0264ZM236.758 69.2627C237.566 69.2627 237.971 68.4014 237.971 66.6787H239.676C239.758 67.0537 239.799 67.3877 239.799 67.6807C239.799 67.9619 239.793 68.2783 239.781 68.6299C239.77 68.9814 239.641 69.4326 239.395 69.9834C238.785 71.2725 237.631 71.917 235.932 71.917C234.244 71.917 232.885 70.9502 231.854 69.0166C231.561 68.4658 231.273 67.9092 230.992 67.3467C230.23 65.7998 229.598 64.7451 229.094 64.1826C228.227 63.2334 227.178 62.7588 225.947 62.7588C225.854 62.7588 225.76 62.7588 225.666 62.7588C225.572 62.7588 225.479 62.7646 225.385 62.7764V67.751C225.385 68.4775 225.537 68.9756 225.842 69.2451C226.158 69.5029 226.879 69.6318 228.004 69.6318V71.5654H218.916V69.6318C219.936 69.6318 220.633 69.4912 221.008 69.21C221.395 68.9287 221.588 68.4424 221.588 67.751V48.7139C221.588 47.8701 221.512 47.3193 221.359 47.0615C221.219 46.8037 220.82 46.6748 220.164 46.6748H218.74V44.7412C219.924 44.7412 220.85 44.6592 221.518 44.4951C222.186 44.3193 222.66 44.1963 222.941 44.126C223.234 44.0439 223.539 44.0029 223.855 44.0029C224.465 44.0029 224.869 44.1787 225.068 44.5303C225.279 44.8818 225.385 45.4561 225.385 46.2529V60.8604H226.281C228.215 59.501 229.902 58.042 231.344 56.4834C231.578 56.2373 231.754 56.0264 231.871 55.8506H228.83V53.7412H238.533V55.8506C236.354 55.9092 234.121 56.9521 231.836 58.9795C231.145 59.5771 230.453 60.2158 229.762 60.8955C231.684 61.6221 233.242 63.2451 234.438 65.7646C234.73 66.3975 235 66.9775 235.246 67.5049C235.492 68.0205 235.732 68.4424 235.967 68.7705C236.201 69.0986 236.465 69.2627 236.758 69.2627Z" fill="#247CFF"/>
<defs>
<linearGradient id="paint0_linear_322_883" x1="4.80695" y1="32.5652" x2="10.2714" y2="50.6889" gradientUnits="userSpaceOnUse">
<stop offset="0.421567" stop-color="#247CFF"/>
<stop offset="1" stop-color="white" stop-opacity="0"/>
</linearGradient>
<linearGradient id="paint1_linear_322_883" x1="8.26367" y1="51.9347" x2="81.705" y2="52.8426" gradientUnits="userSpaceOnUse">
<stop offset="0.570997" stop-color="#247CFF"/>
<stop offset="1" stop-color="white" stop-opacity="0"/>
</linearGradient>
</defs>
</svg>
