<svg width="30" height="24" viewBox="0 0 30 24" fill="none" xmlns="http://www.w3.org/2000/svg">
<path d="M29.6875 3.75L28.5 2.5625L17.5 13.5625C16.125 14.9375 13.8125 14.9375 12.4375 13.5625L1.4375 2.625L0.25 3.8125L8.4375 12L0.25 20.1875L1.4375 21.375L9.625 13.1875L11.25 14.8125C12.25 15.8125 13.5625 16.375 14.9375 16.375C16.3125 16.375 17.625 15.8125 18.625 14.8125L20.25 13.1875L28.4375 21.375L29.625 20.1875L21.4375 12L29.6875 3.75Z" fill="#1E1E1E"/>
<path d="M27.375 23.5H2.6875C1.25 23.5 0.0625 22.3125 0.0625 20.875V3.25C0.0625 1.8125 1.25 0.625 2.6875 0.625H27.375C28.8125 0.625 30 1.8125 30 3.25V20.875C30 22.3125 28.8125 23.5 27.375 23.5ZM2.625 2.3125C2.125 2.3125 1.75 2.6875 1.75 3.1875V20.8125C1.75 21.3125 2.125 21.6875 2.625 21.6875H27.3125C27.8125 21.6875 28.1875 21.3125 28.1875 20.8125V3.1875C28.1875 2.6875 27.8125 2.3125 27.3125 2.3125H2.625Z" fill="#1E1E1E"/>
</svg>
