<svg width="40" height="40" viewBox="0 0 40 40" fill="none" xmlns="http://www.w3.org/2000/svg">
<path d="M32.492 26.2109C31.3514 25.0391 28.1092 22.8438 25.9842 22.8438C25.492 22.8438 25.0623 22.9531 24.7108 23.1797C23.6717 23.8438 22.8436 24.3594 22.4451 24.3594C22.2264 24.3594 21.992 24.1641 21.4764 23.7188L21.3904 23.6406C19.9608 22.3984 19.6561 22.0781 19.1014 21.5L18.9608 21.3516C18.8592 21.25 18.7733 21.1563 18.6873 21.0703C18.2029 20.5703 17.8514 20.2109 16.6092 18.8047L16.5545 18.7422C15.9608 18.0703 15.5701 17.6328 15.5467 17.3125C15.5233 17 15.7967 16.4922 16.492 15.5469C17.3358 14.4062 17.367 13 16.5936 11.3672C15.9764 10.0781 14.9686 8.84375 14.0779 7.75781L13.9998 7.66406C13.2342 6.72656 12.3436 6.25781 11.3514 6.25781C10.2498 6.25781 9.33576 6.85156 8.85139 7.16406C8.81232 7.1875 8.77326 7.21875 8.7342 7.24219C7.64826 7.92969 6.8592 8.875 6.56232 9.83594C6.11701 11.2812 5.82014 13.1563 7.95295 17.0547C9.7967 20.4297 11.4686 22.6953 14.1248 25.4219C16.6248 27.9844 17.7342 28.8125 20.2186 30.6094C22.9842 32.6094 25.6404 33.7578 27.4998 33.7578C29.2264 33.7578 30.5858 33.7578 32.5233 31.4219C34.5545 28.9688 33.7108 27.4688 32.492 26.2109ZM31.5936 30.5781C30.0311 32.4688 29.1326 32.4688 27.5076 32.4688C25.9217 32.4688 23.4608 31.375 20.9295 29.5547C18.5076 27.8047 17.4295 27 14.9998 24.5078C12.4295 21.875 10.8123 19.6797 9.03107 16.4219C7.14826 12.9766 7.3592 11.4687 7.74201 10.2266C7.94514 9.5625 8.55451 8.85156 9.38264 8.33594C9.4217 8.3125 9.46076 8.28125 9.50764 8.25781C9.9217 7.99219 10.6092 7.54688 11.3592 7.54688C11.9842 7.54688 12.5389 7.85938 13.0701 8.50781L13.1483 8.60156C15.1404 11.0391 16.6951 13.1953 15.5233 14.7891C14.6951 15.9062 14.2576 16.6641 14.3279 17.4453C14.3904 18.2031 14.8983 18.7734 15.6639 19.6328L15.7186 19.6953C16.9764 21.1172 17.3358 21.4922 17.8358 22C17.9217 22.0859 18.0076 22.1797 18.1092 22.2812L18.2498 22.4297C18.828 23.0312 19.1483 23.3594 20.617 24.6484L20.7029 24.7266C21.3279 25.2734 21.7889 25.6719 22.4608 25.6719C23.1561 25.6719 23.9217 25.2344 25.3748 24.3047C25.5233 24.2109 25.7342 24.1562 25.9998 24.1562C27.6951 24.1562 30.617 26.0938 31.6404 27.1484C32.5779 28.1016 33.0467 28.8203 31.5936 30.5781Z" fill="#1E1E1E"/>
</svg>
